<?xml version="1.0" standalone="no"?>
<!DOCTYPE svg PUBLIC "-//W3C//DTD SVG 20010904//EN"
 "http://www.w3.org/TR/2001/REC-SVG-20010904/DTD/svg10.dtd">
<svg version="1.0" xmlns="http://www.w3.org/2000/svg"
 width="24.000000pt" height="24.000000pt" viewBox="0 0 512.000000 512.000000"
 preserveAspectRatio="xMidYMid meet">
<metadata>
Created by potrace 1.16, written by Peter Selinger 2001-2019
</metadata>
<g transform="translate(0.000000,512.000000) scale(0.100000,-0.100000)"
fill="#000000" stroke="none">
<path d="M2810 5113 c-554 -85 -966 -475 -1086 -1028 -24 -111 -24 -379 0
-490 110 -508 456 -871 956 -1002 132 -35 384 -44 527 -18 461 82 837 399 991
835 54 153 67 237 67 430 0 193 -13 277 -67 430 -153 432 -535 757 -983 834
-82 15 -334 20 -405 9z"/>
<path d="M753 3605 c-32 -16 -61 -41 -79 -67 l-29 -41 -3 -254 -3 -253 -238 0
c-234 0 -238 0 -288 -25 -32 -16 -61 -41 -79 -67 -26 -37 -29 -49 -29 -124 0
-75 3 -86 30 -125 17 -23 50 -53 74 -66 43 -22 52 -23 288 -23 l243 0 0 -243
c0 -236 1 -245 23 -288 13 -24 43 -57 66 -74 39 -27 50 -30 125 -30 75 0 87 3
124 29 26 18 51 47 67 79 25 50 25 54 25 288 l0 238 253 3 254 3 41 29 c109
75 122 248 26 338 -58 54 -83 58 -339 58 l-235 0 0 238 c0 209 -3 242 -19 277
-52 113 -183 157 -298 100z"/>
<path d="M2180 2129 c-580 -67 -1072 -465 -1253 -1014 -64 -194 -69 -232 -74
-603 l-5 -343 26 -53 c17 -35 41 -63 68 -82 l41 -29 1992 -3 1992 -2 44 23
c27 14 57 42 77 72 l34 50 -5 365 c-5 400 -8 428 -77 626 -151 437 -517 793
-955 929 -222 70 -197 68 -1055 71 -426 1 -809 -2 -850 -7z"/>
</g>
</svg>
