<?xml version="1.0" standalone="no"?>
<!DOCTYPE svg PUBLIC "-//W3C//DTD SVG 20010904//EN"
 "http://www.w3.org/TR/2001/REC-SVG-20010904/DTD/svg10.dtd">
<svg version="1.0" xmlns="http://www.w3.org/2000/svg"
 width="24.000000pt" height="24.000000pt" viewBox="0 0 4088.000000 4088.000000"
 preserveAspectRatio="xMidYMid meet">
<metadata>
Created by potrace 1.16, written by Peter Selinger 2001-2019
</metadata>
<g transform="translate(0.000000,4088.000000) scale(0.100000,-0.100000)"
fill="#000000" stroke="none">
<path d="M19655 40869 c-1737 -69 -3463 -353 -5050 -830 -844 -254 -1539 -508
-2359 -864 -1766 -766 -3496 -1844 -4996 -3114 -818 -692 -1739 -1613 -2431
-2431 -1039 -1227 -1963 -2628 -2689 -4080 -342 -683 -714 -1565 -975 -2310
-519 -1484 -840 -2877 -1024 -4450 -133 -1129 -167 -2407 -96 -3605 92 -1541
373 -3139 806 -4580 254 -844 508 -1539 864 -2359 766 -1766 1844 -3496 3114
-4996 692 -818 1613 -1739 2431 -2431 1227 -1039 2628 -1963 4080 -2689 683
-342 1565 -714 2310 -975 1484 -519 2877 -840 4450 -1024 1129 -133 2407 -167
3605 -96 1541 92 3139 373 4580 806 844 254 1539 508 2359 864 1766 766 3496
1844 4996 3114 818 692 1739 1613 2431 2431 1039 1227 1963 2628 2689 4080
342 683 714 1565 975 2310 519 1484 840 2877 1024 4450 133 1129 167 2407 96
3605 -92 1541 -373 3139 -806 4580 -254 844 -508 1539 -864 2359 -766 1766
-1844 3496 -3114 4996 -692 818 -1613 1739 -2431 2431 -1227 1039 -2628 1963
-4080 2689 -683 342 -1565 714 -2310 975 -1988 695 -3922 1061 -6059 1145
-290 11 -1229 11 -1526 -1z m-12035 -13188 c102 -23 223 -63 305 -101 142 -64
330 -197 447 -317 31 -32 2757 -3059 6058 -6728 3300 -3668 6005 -6670 6010
-6670 5 0 2709 3002 6010 6670 3301 3669 6027 6696 6058 6729 201 206 477 358
772 422 119 26 437 26 560 1 272 -57 528 -192 729 -382 204 -194 369 -497 423
-780 21 -111 18 -449 -6 -554 -50 -231 -151 -446 -291 -621 -72 -90 -13097
-14564 -13204 -14673 -206 -210 -474 -361 -746 -419 -133 -28 -380 -35 -521
-14 -293 43 -569 178 -788 386 -103 98 -13214 14668 -13288 14768 -72 96 -167
279 -207 399 -56 170 -66 238 -66 463 0 219 8 277 62 445 167 520 612 901
1158 990 127 20 409 13 525 -14z"/>
</g>
</svg>
