<?xml version="1.0" standalone="no"?>
<!DOCTYPE svg PUBLIC "-//W3C//DTD SVG 20010904//EN"
 "http://www.w3.org/TR/2001/REC-SVG-20010904/DTD/svg10.dtd">
<svg version="1.0" xmlns="http://www.w3.org/2000/svg"
 width="24.000000pt" height="24.000000pt" viewBox="0 0 512.000000 512.000000"
 preserveAspectRatio="xMidYMid meet">
<metadata>
Created by potrace 1.16, written by Peter Selinger 2001-2019
</metadata>
<g transform="translate(0.000000,512.000000) scale(0.100000,-0.100000)"
fill="#000000" stroke="none">
<path d="M2480 4899 c-45 -19 -90 -60 -112 -102 -19 -36 -23 -63 -28 -186 l-5
-144 -92 -18 c-507 -103 -935 -487 -1104 -990 -72 -216 -72 -209 -76 -974 l-4
-690 -194 -195 c-106 -107 -200 -209 -209 -227 -23 -46 -21 -144 4 -192 24
-48 79 -95 129 -110 55 -16 3487 -16 3542 0 50 15 105 62 129 110 25 48 27
146 4 192 -9 18 -103 120 -209 227 l-194 195 -4 690 c-4 765 -4 758 -76 974
-169 503 -597 887 -1104 990 l-92 18 -5 144 c-5 130 -8 148 -30 189 -14 24
-44 58 -68 74 -36 25 -54 31 -110 33 -37 2 -78 -2 -92 -8z m335 -884 c382 -96
673 -389 778 -780 20 -77 21 -105 26 -835 7 -844 1 -781 79 -862 l36 -38
-1174 0 -1174 0 36 38 c78 81 72 18 79 862 5 730 6 758 26 835 56 208 163 390
314 529 154 143 372 246 581 276 104 15 282 3 393 -25z"/>
<path d="M2130 606 c0 -57 37 -159 80 -219 203 -283 658 -211 760 121 11 35
20 79 20 98 l0 34 -430 0 -430 0 0 -34z"/>
</g>
</svg>
