<?xml version="1.0" standalone="no"?>
<!DOCTYPE svg PUBLIC "-//W3C//DTD SVG 20010904//EN"
 "http://www.w3.org/TR/2001/REC-SVG-20010904/DTD/svg10.dtd">
<svg version="1.0" xmlns="http://www.w3.org/2000/svg"
 width="1022.000000pt" height="1022.000000pt" viewBox="0 0 4088.000000 4088.000000"
 preserveAspectRatio="xMidYMid meet">
<metadata>
Created by potrace 1.16, written by Peter Selinger 2001-2019
</metadata>
<g transform="translate(0.000000,4088.000000) scale(0.100000,-0.100000)"
fill="#000000" stroke="none">
<path d="M20283 31509 c-384 -37 -721 -190 -1013 -461 -69 -64 -4344 -4336
-9501 -9495 -6955 -6956 -9392 -9400 -9438 -9463 -166 -226 -274 -488 -316
-762 -18 -114 -20 -372 -4 -485 14 -107 63 -298 100 -391 45 -114 130 -272
196 -365 89 -125 308 -339 433 -424 513 -346 1139 -395 1697 -133 107 51 244
135 328 203 28 22 4016 4005 8863 8851 l8812 8811 8813 -8811 c4846 -4846
8835 -8829 8862 -8851 191 -155 463 -282 710 -332 461 -95 921 -4 1315 262
125 85 344 299 433 424 66 93 151 251 196 365 37 93 86 284 100 391 16 113 14
371 -4 485 -42 274 -150 536 -316 762 -46 63 -2483 2507 -9438 9463 -5157
5159 -9432 9431 -9501 9495 -298 276 -626 424 -1028 462 -119 11 -178 11 -299
-1z"/>
</g>
</svg>
